<svg width="120" height="120" viewBox="0 0 40 40" xmlns="http://www.w3.org/2000/svg">
  <defs>
    <radialGradient id="lg" cx="50%" cy="50%" r="50%">
      <stop offset="0%" stop-color="#7dd3fc" stop-opacity="0.18"/>
      <stop offset="100%" stop-color="#7dd3fc" stop-opacity="0"/>
    </radialGradient>
  </defs>
  <!-- background -->
  <rect width="40" height="40" fill="#1a1a2e"/>
  <!-- glow -->
  <circle cx="20" cy="20" r="18" fill="url(#lg)"/>
  <!-- hex outline -->
  <polygon points="20,2 35,11 35,29 20,38 5,29 5,11"
           fill="none" stroke="#a5b4fc" stroke-width="0.8" stroke-opacity="0.45"/>
  <!-- spokes center→vertex -->
  <line x1="20" y1="20" x2="20" y2="2"   stroke="#7dd3fc" stroke-width="0.7" stroke-opacity="0.35"/>
  <line x1="20" y1="20" x2="35" y2="11"  stroke="#7dd3fc" stroke-width="0.7" stroke-opacity="0.35"/>
  <line x1="20" y1="20" x2="35" y2="29"  stroke="#7dd3fc" stroke-width="0.7" stroke-opacity="0.35"/>
  <line x1="20" y1="20" x2="20" y2="38"  stroke="#7dd3fc" stroke-width="0.7" stroke-opacity="0.35"/>
  <line x1="20" y1="20" x2="5"  y2="29"  stroke="#7dd3fc" stroke-width="0.7" stroke-opacity="0.35"/>
  <line x1="20" y1="20" x2="5"  y2="11"  stroke="#7dd3fc" stroke-width="0.7" stroke-opacity="0.35"/>
  <!-- inner triangle ▲ -->
  <polygon points="20,2 35,29 5,29"
           fill="none" stroke="#a5b4fc" stroke-width="0.65" stroke-opacity="0.3"/>
  <!-- inner triangle ▼ -->
  <polygon points="20,38 35,11 5,11"
           fill="none" stroke="#a5b4fc" stroke-width="0.65" stroke-opacity="0.3"/>
  <!-- vertex nodes -->
  <circle cx="20" cy="2"  r="1.8" fill="#a5b4fc"/>
  <circle cx="35" cy="11" r="1.8" fill="#a5b4fc"/>
  <circle cx="35" cy="29" r="1.8" fill="#a5b4fc"/>
  <circle cx="20" cy="38" r="1.8" fill="#a5b4fc"/>
  <circle cx="5"  cy="29" r="1.8" fill="#a5b4fc"/>
  <circle cx="5"  cy="11" r="1.8" fill="#a5b4fc"/>
  <!-- center core: ring + dot -->
  <circle cx="20" cy="20" r="4"   fill="#7dd3fc"/>
  <circle cx="20" cy="20" r="2.4" fill="#1a1a2e"/>
  <circle cx="20" cy="20" r="1.3" fill="#7dd3fc"/>
</svg>
